HIERARCHY
ROOT hip
{
	OFFSET 0.000000 0.000000 0.000000 
	CHANNELS 6 Xposition Yposition Zposition Xrotation Zrotation Yrotation
	JOINT abdomen
	{
		OFFSET 0.000000 3.402643 0.000000 
		CHANNELS 3 Xrotation Zrotation Yrotation
		JOINT chest
		{
			OFFSET 0.000000 8.438565 -0.680529 
			CHANNELS 3 Xrotation Zrotation Yrotation
			JOINT neck
			{
				OFFSET 0.000000 10.207942 -0.272212 
				CHANNELS 3 Xrotation Zrotation Yrotation
				JOINT head
				{
					OFFSET 0.000000 3.130431 0.000000 
					CHANNELS 3 Xrotation Zrotation Yrotation
					End Site
					{
						OFFSET 0.000000 3.130435 0.000000 
					}
				}
			}
			JOINT lCollar
			{
				OFFSET 3.470700 6.669187 -0.816635 
				CHANNELS 3 Yrotation Zrotation Xrotation
				JOINT lShldr
				{
					OFFSET 3.198488 0.000000 0.000000 
					CHANNELS 3 Zrotation Yrotation Xrotation
					JOINT lForeArm
					{
						OFFSET 10.139888 0.000000 0.000000 
						CHANNELS 3 Yrotation Zrotation Xrotation
						JOINT lHand
						{
							OFFSET 8.370511 0.000000 0.000000 
							CHANNELS 3 Zrotation Yrotation Xrotation
							End Site
							{
								OFFSET 4.083176 0.000000 0.000000 
							}
						}
					}
				}
			}
			JOINT rCollar
			{
				OFFSET -3.470700 6.669187 -0.816635 
				CHANNELS 3 Yrotation Zrotation Xrotation
				JOINT rShldr
				{
					OFFSET -3.198488 0.000000 0.000000 
					CHANNELS 3 Zrotation Yrotation Xrotation
					JOINT rForeArm
					{
						OFFSET -10.139888 0.000000 0.000000 
						CHANNELS 3 Yrotation Zrotation Xrotation
						JOINT rHand
						{
							OFFSET -8.370511 0.000000 0.000000 
							CHANNELS 3 Zrotation Yrotation Xrotation
							End Site
							{
								OFFSET -4.083176 0.000000 0.000000 
							}
						}
					}
				}
			}
		}
	}
	JOINT lThigh
	{
		OFFSET 5.308129 -1.633274 1.361059 
		CHANNELS 3 Xrotation Zrotation Yrotation
		JOINT lShin
		{
			OFFSET -2.041588 -20.007561 0.000000 
			CHANNELS 3 Xrotation Zrotation Yrotation
			JOINT lFoot
			{
				OFFSET 0.000000 -19.190928 -1.224953 
				CHANNELS 3 Xrotation Yrotation Zrotation
				End Site
				{
					OFFSET 0.000000 -2.449906 4.627600 
				}
			}
		}
	}
	JOINT rThigh
	{
		OFFSET -5.308129 -1.633274 1.361059 
		CHANNELS 3 Xrotation Zrotation Yrotation
		JOINT rShin
		{
			OFFSET 2.041588 -20.007561 0.000000 
			CHANNELS 3 Xrotation Zrotation Yrotation
			JOINT rFoot
			{
				OFFSET 0.000000 -19.190928 -1.224953 
				CHANNELS 3 Xrotation Yrotation Zrotation
				End Site
				{
					OFFSET 0.000000 -2.449906 4.627600 
				}
			}
		}
	}
}
MOTION
Frames: 20
Frame Time: 0.016667
-0.249394 47.345287 -0.749163 -1.823126 -3.031562 -46.559574 0.000000 0.000000 0.000000 11.523793 1.913013 10.142745 -8.603516 0.000000 0.000000 11.637671 -2.553035 20.998257 -3.004437 8.316357 0.649617 -94.263863 3.105642 -11.160069 -34.294415 -0.763749 2.694788 1.644208 -3.403038 -3.510995 2.985133 -8.336106 0.651042 88.909966 -3.938854 -12.291074 41.923904 0.649847 2.790588 -1.662539 3.382353 -3.511080 -7.334691 20.557295 23.586052 11.403918 -3.951479 -0.902838 5.017386 -8.028659 -0.023101 14.140867 -9.177729 -29.020742 14.420649 3.871317 1.075825 -15.226497 7.175171 0.041185 
-0.180568 47.351120 -0.662507 -1.934486 -3.007272 -46.753792 0.000000 0.000000 0.000000 11.998770 1.826105 10.210421 -8.603516 0.000000 0.000000 11.300928 -2.655054 20.902040 -3.004437 8.316357 0.649617 -94.353065 2.488673 -10.061521 -34.617455 -0.760699 2.700480 1.644208 -3.403038 -3.510995 2.985133 -8.336106 0.651042 88.752777 -3.146297 -11.135771 42.179047 0.642833 2.801170 -1.662539 3.382353 -3.511080 -7.294890 20.726212 20.715723 9.545713 -3.974720 -0.788683 4.579475 -6.879924 0.002549 13.999370 -9.481304 -28.163275 14.630978 3.879963 1.082611 -15.149725 6.483594 0.035723 
-0.087729 47.331581 -0.496227 -1.818627 -2.913983 -47.111057 0.000000 0.000000 0.000000 12.284184 1.785992 10.503238 -8.603516 0.000000 0.000000 10.934690 -2.701721 20.844425 -3.004437 8.316357 0.649617 -94.381981 1.757534 -9.076788 -35.165188 -0.764227 2.706513 1.644208 -3.403038 -3.510995 2.985133 -8.336106 0.651042 88.681511 -2.194898 -9.961938 42.413822 0.647926 2.805187 -1.662539 3.382353 -3.511080 -7.099505 20.825657 18.576271 7.045611 -4.003127 -0.637002 3.963415 -5.205112 -0.019417 13.719429 -9.784817 -27.509336 14.785084 3.869775 1.092169 -15.098358 6.149952 0.050628 
0.005146 47.311977 -0.329823 -1.694039 -2.821566 -47.468468 0.000000 0.000000 0.000000 12.569198 1.745905 10.796359 -8.603516 0.000000 0.000000 10.565075 -2.757552 20.786837 -3.004437 8.316357 0.649617 -94.420204 1.025887 -8.091446 -35.713379 -0.758285 2.711846 1.644208 -3.403038 -3.510995 2.985133 -8.336106 0.651042 88.629356 -1.237665 -8.791366 42.649067 0.643339 2.809050 -1.662539 3.382353 -3.511080 -6.894338 20.922544 16.455515 4.536579 -4.022244 -0.473784 3.375103 -3.565868 -0.025344 13.425674 -10.077814 -26.841919 14.948531 3.861891 1.103331 -15.070266 5.800988 0.047454 
0.118462 47.248402 -0.091982 -1.325676 -2.692613 -48.039398 0.000000 0.000000 0.000000 12.637123 1.772035 11.236201 -8.603516 0.000000 0.000000 10.190220 -2.756122 20.864859 -3.004437 8.316357 0.649617 -94.398071 0.268219 -7.298015 -36.457912 -0.738401 2.717780 1.644208 -3.403038 -3.510995 2.985133 -8.336106 0.651042 88.644485 0.017052 -7.492744 42.854668 0.640501 2.806934 -1.662539 3.382353 -3.511080 -6.718428 21.065729 15.838329 2.279870 -4.040134 -0.289471 2.881671 -2.142145 -0.027025 12.920792 -10.377739 -26.286541 15.182469 3.852262 1.128979 -15.112702 5.761976 0.050321 
0.231807 47.184731 0.145975 -0.966462 -2.558618 -48.619900 0.000000 0.000000 0.000000 12.705467 1.797974 11.676045 -8.603516 0.000000 0.000000 9.818392 -2.745388 20.952637 -3.004437 8.316357 0.649617 -94.385590 -0.491253 -6.505008 -37.211632 -0.735119 2.730080 1.644208 -3.403038 -3.510995 2.985133 -8.336106 0.651042 88.688934 1.274142 -6.192832 43.060673 0.634596 2.811869 -1.662539 3.382353 -3.511080 -6.552641 21.223528 15.220557 0.026079 -4.055319 -0.114268 2.402919 -0.728394 -0.010147 12.411550 -10.683846 -25.708178 15.414793 3.849389 1.145635 -15.130211 5.748613 0.022273 
0.362072 47.074104 0.448230 -0.405788 -2.413194 -49.346470 0.000000 0.000000 0.000000 12.640500 1.833063 12.145172 -8.603516 0.000000 0.000000 9.445543 -2.596063 21.145447 -3.004437 8.316357 0.649617 -94.294044 -1.276029 -5.887996 -38.103176 -0.715793 2.743705 1.644208 -3.403038 -3.510995 2.985133 -8.336106 0.651042 88.859825 2.855269 -4.744864 43.246773 0.630862 2.810462 -1.662539 3.382353 -3.511080 -6.591818 21.542751 15.936871 -1.272639 -4.047662 -0.048462 2.284557 0.062817 -0.019060 11.712556 -10.973525 -25.068411 15.698529 3.839436 1.174739 -15.224767 5.776825 0.031952 
0.492365 46.963421 0.750593 0.144192 -2.264317 -50.073044 0.000000 0.000000 0.000000 12.574315 1.858294 12.624060 -8.603516 0.000000 0.000000 9.074105 -2.447253 21.328659 -3.004437 8.316357 0.649617 -94.202621 -2.053103 -5.274057 -38.994621 -0.703526 2.763015 1.644208 -3.403038 -3.510995 2.985133 -8.336106 0.651042 89.070961 4.420077 -3.284817 43.432793 0.633860 2.816074 -1.662539 3.382353 -3.511080 -6.620999 21.858042 16.630936 -2.589889 -4.042584 0.038286 2.192220 0.826021 -0.015776 11.009695 -11.256565 -24.383835 15.979957 3.841944 1.176098 -15.302421 5.790903 0.042878 
0.637916 46.821575 1.111897 0.775932 -2.099548 -50.809063 0.000000 0.000000 0.000000 12.432933 1.817068 13.053824 -8.603516 0.000000 0.000000 8.667134 -2.116790 21.528921 -3.004437 8.316357 0.649617 -93.994537 -2.932565 -4.699817 -39.914932 -0.697278 2.771767 1.644208 -3.403038 -3.510995 2.985133 -8.336106 0.651042 89.430428 6.281531 -1.780808 43.618813 0.636922 2.821568 -1.662539 3.382353 -3.511080 -7.021350 22.365364 17.765947 -2.653918 -4.035581 0.052078 2.522219 1.017021 -0.022996 10.251245 -11.552020 -23.506872 16.252934 3.832178 1.204466 -15.445867 5.646145 0.060313 
0.783491 46.679729 1.473293 1.406029 -1.932454 -51.544926 0.000000 0.000000 0.000000 12.300721 1.775872 13.483283 -8.603516 0.000000 0.000000 8.263074 -1.787455 21.710056 -3.004437 8.316357 0.649617 -93.796135 -3.807256 -4.132633 -40.835693 -0.682121 2.778600 1.644208 -3.403038 -3.510995 2.985133 -8.336106 0.651042 89.842163 8.134097 -0.256484 43.815136 0.624015 2.819438 -1.662539 3.382353 -3.511080 -7.431845 22.878958 18.872248 -2.714163 -4.042060 0.066413 2.898930 1.222788 -0.036793 9.481563 -11.826030 -22.622835 16.514120 3.831755 1.213788 -15.560693 5.496491 0.051164 
0.942805 46.532970 1.886309 1.999850 -1.744096 -52.163136 0.000000 0.000000 0.000000 12.216142 1.573501 13.921390 -8.603516 0.000000 0.000000 7.791252 -1.324008 21.783415 -3.004437 8.316357 0.649617 -93.471962 -4.907896 -3.499027 -41.726620 -0.682599 2.792049 1.644208 -3.403038 -3.510995 2.985133 -8.336106 0.651042 90.396820 10.197516 1.145131 43.971912 0.625739 2.826111 -1.662539 3.382353 -3.511080 -8.154273 23.433008 19.973587 -1.757075 -4.054239 0.006400 3.536367 0.979016 -0.034611 8.806453 -12.146803 -21.678667 16.676338 3.823416 1.224097 -15.669437 5.165022 0.040916 
1.102138 46.386246 2.299396 2.593888 -1.548236 -52.781540 0.000000 0.000000 0.000000 12.140681 1.381254 14.359918 -8.603516 0.000000 0.000000 7.311152 -0.861167 21.838482 -3.004437 8.316357 0.649617 -93.166878 -6.026652 -2.875442 -42.618076 -0.667695 2.796111 1.644208 -3.403038 -3.510995 2.985133 -8.336106 0.651042 91.008461 12.252406 2.579187 44.128761 0.620719 2.825678 -1.662539 3.382353 -3.511080 -8.887030 24.009912 21.017851 -0.774877 -4.021546 -0.066106 4.181405 0.741181 -0.027642 8.124331 -12.470295 -20.720991 16.827139 3.822422 1.225532 -15.772761 4.823474 0.046798 
1.271741 46.257874 2.752031 3.077119 -1.320553 -53.262775 0.000000 0.000000 0.000000 12.192409 1.009819 14.895029 -8.603516 0.000000 0.000000 6.734363 -0.353942 21.670332 -3.004437 8.316357 0.649617 -92.794342 -7.447233 -2.160194 -43.392441 -0.654495 2.810903 1.644208 -3.403038 -3.510995 2.985133 -8.336106 0.651042 91.721901 14.487113 3.744482 44.167675 0.629448 2.830814 -1.662539 3.382353 -3.511080 -9.853425 24.438475 22.171974 0.874200 -4.039287 -0.196280 4.804624 -0.020158 -0.016975 7.610509 -12.864779 -19.829933 16.806805 3.822316 1.233832 -15.857247 4.403089 0.040266 
1.441353 46.129559 3.204711 3.568157 -1.092020 -53.734997 0.000000 0.000000 0.000000 12.244399 0.630713 15.430666 -8.603516 0.000000 0.000000 6.167923 0.163557 21.494244 -3.004437 8.316357 0.649617 -92.440193 -8.887336 -1.451898 -44.166714 -0.648955 2.830924 1.644208 -3.403038 -3.510995 2.985133 -8.336106 0.651042 92.501396 16.702251 4.953944 44.216900 0.622103 2.828471 -1.662539 3.382353 -3.511080 -10.840016 24.898081 23.265182 2.570005 -4.036708 -0.281625 5.404009 -0.806831 -0.016908 7.109230 -13.261689 -18.934578 16.796034 3.824258 1.242455 -15.955163 3.968313 0.037242 
1.615511 46.029263 3.679633 3.942772 -0.790895 -54.070068 0.000000 0.000000 0.000000 12.401785 0.065674 16.113295 -8.603516 0.000000 0.000000 5.473271 0.619605 21.085333 -3.004437 8.316357 0.649617 -92.056854 -10.696962 -0.742932 -44.774048 -0.644796 2.836386 1.644208 -3.403038 -3.510995 2.985133 -8.336106 0.651042 93.337051 19.085564 5.797570 44.060123 0.620312 2.821927 -1.662539 3.382353 -3.511080 -11.884757 25.081421 24.903151 4.409133 -4.033257 -0.435466 5.785076 -2.138949 -0.003256 6.764118 -13.727346 -18.204960 16.595844 3.823434 1.228157 -15.994885 3.579181 0.045557 
1.789664 45.929024 4.154564 4.313835 -0.494631 -54.397537 0.000000 0.000000 0.000000 12.555505 -0.495495 16.797497 -8.603516 0.000000 0.000000 4.771747 1.078269 20.658190 -3.004437 8.316357 0.649617 -91.690475 -12.506543 -0.044372 -45.381367 -0.641056 2.840695 1.644208 -3.403038 -3.510995 2.985133 -8.336106 0.651042 94.233322 21.466969 6.702424 43.903275 0.625350 2.822323 -1.662539 3.382353 -3.511080 -12.949192 25.287607 26.505840 6.260020 -4.021119 -0.551353 6.153400 -3.485174 -0.006282 6.402922 -14.205722 -17.472542 16.404850 3.824332 1.223876 -16.042131 3.167558 0.030563 
1.961368 45.852486 4.632464 4.631918 -0.113060 -54.629074 0.000000 0.000000 0.000000 12.767522 -1.247076 17.640905 -8.603516 0.000000 0.000000 4.021368 1.495684 20.016930 -3.004437 8.316357 0.649617 -91.352943 -14.709528 0.488778 -45.734432 -0.630623 2.843438 1.644208 -3.403038 -3.510995 2.985133 -8.336106 0.651042 95.197159 24.006794 7.267155 43.491760 0.626982 2.813348 -1.662539 3.382353 -3.511080 -13.994027 25.166952 28.627302 7.976277 -4.001761 -0.694966 6.251787 -5.154337 -0.002722 6.130458 -14.724291 -16.916737 16.051781 3.833963 1.189840 -16.064623 2.864454 0.052453 
2.133052 45.775967 5.110339 4.938882 0.269712 -54.873940 0.000000 0.000000 0.000000 12.971055 -2.009975 18.478315 -8.603516 0.000000 0.000000 3.254874 1.897975 19.366745 -3.004437 8.316357 0.649617 -91.020615 -16.909147 1.008423 -46.087498 -0.620331 2.845814 1.644208 -3.403038 -3.510995 2.985133 -8.336106 0.651042 96.222107 26.546162 7.895518 43.080170 0.635553 2.810974 -1.662539 3.382353 -3.511080 -15.039147 25.084366 30.739609 9.722592 -3.979942 -0.821352 6.309560 -6.845635 0.003944 5.858744 -15.254175 -16.349777 15.706135 3.851095 1.167087 -16.077614 2.530732 0.056646 
2.294143 45.711430 5.574455 5.276649 0.755030 -55.065632 0.000000 0.000000 0.000000 13.119514 -2.919177 19.459583 -8.603516 0.000000 0.000000 2.475294 2.342471 18.551432 -3.004437 8.316357 0.649617 -90.714638 -19.479303 1.214366 -46.077271 -0.629600 2.846318 1.644208 -3.403038 -3.510995 2.985133 -8.336106 0.651042 97.344727 29.233206 8.224964 42.452896 0.643244 2.796235 -1.662539 3.382353 -3.511080 -16.103552 24.797224 32.675507 11.216858 -3.951305 -0.918520 6.196459 -8.186276 -0.012340 5.582320 -15.776791 -15.938560 15.232141 3.853789 1.142439 -16.011070 2.257025 0.037007 
2.455198 45.646900 6.038527 5.613285 1.241893 -55.243958 0.000000 0.000000 0.000000 13.244248 -3.826096 20.427902 -8.603516 0.000000 0.000000 1.696268 2.772205 17.726652 -3.004437 8.316357 0.649617 -90.400291 -22.051966 1.396688 -46.057777 -0.628631 2.847325 1.644208 -3.403038 -3.510995 2.985133 -8.336106 0.651042 98.512421 31.915194 8.611043 41.815788 0.657613 2.788112 -1.662539 3.382353 -3.511080 -17.158279 24.575254 34.628162 12.731805 -3.942518 -1.018441 6.054883 -9.542517 -0.007216 5.307829 -16.300930 -15.514789 14.766954 3.861701 1.090521 -15.968412 1.998806 0.037898 
